<?xml version="1.0" encoding="utf-8"?>
<!-- Generator: Adobe Illustrator 19.0.0, SVG Export Plug-In . SVG Version: 6.00 Build 0)  -->
<svg version="1.1" id="Layer_1" xmlns="http://www.w3.org/2000/svg" xmlns:xlink="http://www.w3.org/1999/xlink" x="0px" y="0px"
	 viewBox="0 0 500 500" style="enable-background:new 0 0 500 500;" xml:space="preserve">
<style type="text/css">
	.st0{stroke:#000;stroke-miterlimit:10;}
	.st1{fill:none;}
</style>
<path id="XMLID_18_" class="st0" d="M323.2,269.2c10-16.4,15.8-35.6,15.8-56.2c0-59.7-48.3-108-108-108s-108,48.3-108,108
	c0,59.6,48.3,108,108,108c20.6,0,39.8-5.8,56.2-15.8l44.2,44.2H377V323L323.2,269.2z M231,285c-39.8,0-72-32.2-72-72s32.2-72,72-72
	s72,32.2,72,72S270.8,285,231,285z"/>
<line id="XMLID_8_" class="st1" x1="331.4" y1="349.4" x2="180" y2="349.4"/>
</svg>
